<svg width="21" height="22" viewBox="0 0 21 22" fill="none" xmlns="http://www.w3.org/2000/svg">
<path d="M20.626 10.7574C20.626 9.89213 20.5558 9.26072 20.4039 8.60593H10.5234V12.5113H16.323C16.2061 13.4818 15.5747 14.9434 14.1716 15.9256L14.1519 16.0563L17.2759 18.4764L17.4923 18.498C19.4801 16.6622 20.626 13.9612 20.626 10.7574Z" fill="#4285F4"/>
<path d="M10.5241 21.047C13.3654 21.047 15.7507 20.1116 17.493 18.498L14.1722 15.9255C13.2836 16.5453 12.0909 16.9779 10.5241 16.9779C7.74122 16.9779 5.37929 15.1422 4.53733 12.6048L4.41391 12.6153L1.16553 15.1293L1.12305 15.2474C2.85356 18.685 6.40818 21.047 10.5241 21.047Z" fill="#34A853"/>
<path d="M4.53676 12.6049C4.3146 11.9501 4.18603 11.2485 4.18603 10.5236C4.18603 9.79858 4.3146 9.09704 4.52507 8.44225L4.51919 8.3028L1.23009 5.74846L1.12248 5.79965C0.409252 7.22618 0 8.82813 0 10.5236C0 12.219 0.409252 13.8209 1.12248 15.2474L4.53676 12.6049Z" fill="#FBBC05"/>
<path d="M10.5241 4.06907C12.5001 4.06907 13.8331 4.92264 14.5932 5.63595L17.5631 2.73611C15.7391 1.04066 13.3654 0 10.5241 0C6.40818 0 2.85356 2.36193 1.12305 5.79958L4.52564 8.44219C5.37929 5.90486 7.74122 4.06907 10.5241 4.06907Z" fill="#EB4335"/>
</svg>
