<svg width="66" height="18" viewBox="0 0 66 18" fill="none" xmlns="http://www.w3.org/2000/svg">
<path d="M0.2 18V17.604L9.02 3.084H0.68V0.719999H13.328V1.128L4.556 15.624H13.172V18H0.2ZM15.0191 18L20.6351 0.719999H24.2471L29.8631 18H27.2591L22.0871 2.232H22.7351L17.6231 18H15.0191ZM17.9351 14.1V11.748H26.9591V14.1H17.9351ZM32.0159 18V0.719999H34.2839L40.5479 13.716L46.7759 0.719999H49.0679V17.988H46.6919V6.168L41.1119 18H39.9719L34.3799 6.168V18H32.0159ZM52.43 18V0.719999H59.414C59.582 0.719999 59.79 0.727999 60.038 0.743999C60.286 0.751999 60.522 0.776 60.746 0.816C61.706 0.967999 62.506 1.296 63.146 1.8C63.794 2.304 64.278 2.94 64.598 3.708C64.918 4.476 65.078 5.324 65.078 6.252C65.078 7.188 64.918 8.04 64.598 8.808C64.278 9.576 63.794 10.212 63.146 10.716C62.506 11.22 61.706 11.548 60.746 11.7C60.522 11.732 60.282 11.756 60.026 11.772C59.778 11.788 59.574 11.796 59.414 11.796H54.938V18H52.43ZM54.938 9.42H59.318C59.478 9.42 59.654 9.412 59.846 9.396C60.046 9.38 60.234 9.352 60.41 9.312C60.922 9.192 61.334 8.972 61.646 8.652C61.958 8.324 62.182 7.948 62.318 7.524C62.454 7.1 62.522 6.676 62.522 6.252C62.522 5.828 62.454 5.408 62.318 4.992C62.182 4.568 61.958 4.196 61.646 3.876C61.334 3.548 60.922 3.324 60.41 3.204C60.234 3.156 60.046 3.124 59.846 3.108C59.654 3.092 59.478 3.084 59.318 3.084H54.938V9.42Z" fill="#1E3A8A"/>
</svg>
